<?xml version="1.0" encoding="UTF-8" standalone="no"?>
<!-- Created with Inkscape (http://www.inkscape.org/) -->

<svg
   xmlns:dc="http://purl.org/dc/elements/1.1/"
   xmlns:cc="http://creativecommons.org/ns#"
   xmlns:rdf="http://www.w3.org/1999/02/22-rdf-syntax-ns#"
   xmlns:svg="http://www.w3.org/2000/svg"
   xmlns="http://www.w3.org/2000/svg"
   xmlns:xlink="http://www.w3.org/1999/xlink"
   xmlns:sodipodi="http://sodipodi.sourceforge.net/DTD/sodipodi-0.dtd"
   xmlns:inkscape="http://www.inkscape.org/namespaces/inkscape"
   width="424.39798"
   height="424.36319"
   id="svg2"
   version="1.1"
   inkscape:version="0.48.2 r9819"
   sodipodi:docname="logo.svg">
  <defs
     id="defs4" />
  <sodipodi:namedview
     id="base"
     pagecolor="#ffffff"
     bordercolor="#666666"
     borderopacity="1.0"
     inkscape:pageopacity="0.0"
     inkscape:pageshadow="2"
     inkscape:zoom="1"
     inkscape:cx="167.79596"
     inkscape:cy="204.31408"
     inkscape:document-units="px"
     inkscape:current-layer="layer1"
     showgrid="false"
     inkscape:window-width="1600"
     inkscape:window-height="838"
     inkscape:window-x="-8"
     inkscape:window-y="-8"
     inkscape:window-maximized="1"
     fit-margin-top="0"
     fit-margin-left="0"
     fit-margin-right="0"
     fit-margin-bottom="0" />
  <metadata
     id="metadata7">
    <rdf:RDF>
      <cc:Work
         rdf:about="">
        <dc:format>image/svg+xml</dc:format>
        <dc:type
           rdf:resource="http://purl.org/dc/dcmitype/StillImage" />
        <dc:title />
      </cc:Work>
    </rdf:RDF>
  </metadata>
  <g
     inkscape:label="Layer 1"
     inkscape:groupmode="layer"
     id="layer1"
     transform="translate(-289.80104,-321.17749)">
    <g
       id="g3002">
      <path
         inkscape:export-ydpi="217.17247"
         inkscape:export-xdpi="217.17247"
         inkscape:export-filename="C:\Users\erikku\Dropbox\Megaten\logo.png"
         transform="matrix(1.113175,0,0,1.113175,-124.16091,-107.67318)"
         d="m 752,575.86218 c 0,104.65796 -84.84204,189.5 -189.5,189.5 -104.65796,0 -189.5,-84.84204 -189.5,-189.5 0,-104.65796 84.84204,-189.5 189.5,-189.5 104.65796,0 189.5,84.84204 189.5,189.5 z"
         sodipodi:ry="189.5"
         sodipodi:rx="189.5"
         sodipodi:cy="575.86218"
         sodipodi:cx="562.5"
         id="path3011"
         style="fill:#ffffff;fill-opacity:1;stroke:#000000;stroke-width:2.2352941;stroke-miterlimit:4;stroke-opacity:1;stroke-dasharray:none"
         sodipodi:type="arc" />
      <path
         inkscape:export-ydpi="217.17247"
         inkscape:export-xdpi="217.17247"
         inkscape:export-filename="C:\Users\erikku\Dropbox\Megaten\logo.png"
         id="circle3831"
         d="m 500.40625,373.84375 c -69.71825,0.776 -128.72163,46.13824 -149.875,108.90625 a 2.0002,2.0002 0 0 1 0.21875,0 l 114.25,0 35.3125,-108.65625 a 2.0002,2.0002 0 0 1 0.0937,-0.25 z m 3.625,0 a 2.0002,2.0002 0 0 1 0.0937,0.25 l 35.3125,108.65625 114.28125,0 a 2.0002,2.0002 0 0 1 0.21875,0 C 632.78413,419.98199 573.7495,374.61975 504.03125,373.84375 z m -1.8125,7.34375 -33,101.5625 66,0 -33,-101.5625 z M 349.375,486.21875 c -4.68778,15.0517 -7.1875,31.06138 -7.1875,47.65625 0,52.57197 25.32905,99.25964 64.46875,128.4375 a 2.0002,2.0002 0 0 1 0.0625,-0.15625 L 442,553.53125 349.5625,486.375 a 2.0002,2.0002 0 0 1 -0.1875,-0.15625 z m 305.6875,0 a 2.0002,2.0002 0 0 1 -0.1875,0.15625 l -92.4375,67.15625 35.3125,108.625 a 2.0002,2.0002 0 0 1 0.0312,0.15625 c 39.15047,-29.17693 64.5,-75.85704 64.5,-128.4375 0,-16.5983 -2.52911,-32.60183 -7.21875,-47.65625 z m -298.125,0.53125 86.375,62.75 20.40625,-62.75 -106.78125,0 z m 111,0 -21.21875,65.25 55.5,40.3125 55.5,-40.3125 -21.1875,-65.25 -68.59375,0 z m 72.8125,0 20.375,62.75 86.40625,-62.75 -106.78125,0 z m -95.3125,69.25 -33,101.53125 86.375,-62.75 L 445.4375,556 z m 113.59375,0 -53.40625,38.78125 86.40625,62.78125 -33,-101.5625 z m -56.8125,41.25 -92.4375,67.15625 a 2.0002,2.0002 0 0 1 -0.125,0.0625 c 26.13092,18.5551 58.07378,29.46875 92.5625,29.46875 34.47281,0 66.40703,-10.89801 92.53125,-29.4375 a 2.0002,2.0002 0 0 1 -0.0937,-0.0937 L 502.21875,597.25 z"
         style="fill:#000000;fill-opacity:1;stroke:none"
         inkscape:connector-curvature="0" />
      <path
         inkscape:export-ydpi="217.17247"
         inkscape:export-xdpi="217.17247"
         inkscape:export-filename="C:\Users\erikku\Dropbox\Megaten\logo.png"
         sodipodi:type="arc"
         style="fill:none;stroke:#000000;stroke-width:2.2352941;stroke-miterlimit:4;stroke-opacity:1;stroke-dasharray:none"
         id="path3781"
         sodipodi:cx="562.5"
         sodipodi:cy="575.86218"
         sodipodi:rx="189.5"
         sodipodi:ry="189.5"
         d="m 752,575.86218 c 0,104.65796 -84.84204,189.5 -189.5,189.5 -104.65796,0 -189.5,-84.84204 -189.5,-189.5 0,-104.65796 84.84204,-189.5 189.5,-189.5 104.65796,0 189.5,84.84204 189.5,189.5 z"
         transform="matrix(1.0653085,0,0,1.0653085,-97.23599,-80.108658)" />
      <path
         inkscape:export-ydpi="217.17247"
         inkscape:export-xdpi="217.17247"
         inkscape:export-filename="C:\Users\erikku\Dropbox\Megaten\logo.png"
         id="path3783"
         d="m 502,337.53125 c -108.14822,0 -195.8125,87.69553 -195.8125,195.84375 0,108.14822 87.66428,195.8125 195.8125,195.8125 108.14822,0 195.8125,-87.66428 195.8125,-195.8125 0,-108.14822 -87.66428,-195.84375 -195.8125,-195.84375 z m 0,24.5 c 94.62969,0 171.34375,76.71406 171.34375,171.34375 0,94.62969 -76.71406,171.34375 -171.34375,171.34375 -94.62969,0 -171.34375,-76.71406 -171.34375,-171.34375 0,-94.62969 76.71406,-171.34375 171.34375,-171.34375 z"
         style="fill:#000000;fill-opacity:1;stroke:none"
         inkscape:connector-curvature="0" />
      <path
         inkscape:export-ydpi="217.17247"
         inkscape:export-xdpi="217.17247"
         inkscape:export-filename="C:\Users\erikku\Dropbox\Megaten\logo.png"
         transform="matrix(0.88420605,0,0,0.88420605,4.6341353,24.181391)"
         d="m 752,575.86218 c 0,104.65796 -84.84204,189.5 -189.5,189.5 -104.65796,0 -189.5,-84.84204 -189.5,-189.5 0,-104.65796 84.84204,-189.5 189.5,-189.5 104.65796,0 189.5,84.84204 189.5,189.5 z"
         sodipodi:ry="189.5"
         sodipodi:rx="189.5"
         sodipodi:cy="575.86218"
         sodipodi:cx="562.5"
         id="path3788"
         style="fill:none;stroke:#000000;stroke-width:2.2352941;stroke-miterlimit:4;stroke-opacity:1;stroke-dasharray:none"
         sodipodi:type="arc" />
      <g
         inkscape:export-ydpi="217.17247"
         inkscape:export-xdpi="217.17247"
         inkscape:export-filename="C:\Users\erikku\Dropbox\Megaten\logo.png"
         transform="matrix(4.5179705,0,0,2.551515,251.21246,-373.74676)"
         id="text2985"
         style="font-size:40px;font-style:normal;font-variant:normal;font-weight:normal;font-stretch:normal;line-height:125%;letter-spacing:0px;word-spacing:0px;fill:#ffffff;fill-opacity:1;stroke:none;font-family:Gentium Plus;-inkscape-font-specification:Gentium Plus">
        <path
           style="fill:#ffffff;fill-opacity:1"
           inkscape:connector-curvature="0"
           id="path3073"
           d="m 52.164062,411.0575 c 0.507804,0 1.002595,-0.16927 1.484375,-0.50782 0.481761,-0.33854 0.93749,-0.7845 1.367188,-1.33789 0.429676,-0.55338 0.826811,-1.17838 1.191406,-1.875 0.364571,-0.69661 0.690092,-1.39647 0.976563,-2.09961 -0.351576,-2.94269 -0.953789,-5.10741 -1.806641,-6.49414 -0.852875,-1.3867 -1.858733,-2.08006 -3.017578,-2.08008 -0.4948,2e-5 -0.98308,0.14325 -1.464844,0.42969 -0.481777,0.28648 -0.914719,0.72267 -1.298828,1.3086 -0.38412,0.58595 -0.696619,1.32162 -0.9375,2.20703 -0.24089,0.88542 -0.361332,1.92709 -0.361328,3.125 -4e-6,0.92448 0.08789,1.82618 0.263672,2.70507 0.175776,0.87892 0.429682,1.66017 0.761719,2.34375 0.332025,0.6836 0.735671,1.23373 1.210937,1.6504 0.475254,0.41666 1.018873,0.625 1.630859,0.625 z m 11.777344,-15.74219 c -0.494811,0.28647 -0.944029,0.63153 -1.347656,1.03515 -0.403664,0.40367 -0.784523,0.94403 -1.142578,1.6211 -0.35809,0.6771 -0.703142,1.51694 -1.035156,2.51953 -0.332048,1.00261 -0.667334,2.2461 -1.00586,3.73047 0.169256,1.09376 0.32225,2.02474 0.458985,2.79297 0.136702,0.76823 0.266911,1.40951 0.390625,1.92382 0.123681,0.51433 0.240869,0.92449 0.351562,1.23047 0.11066,0.306 0.218082,0.53386 0.322266,0.6836 0.104149,0.14974 0.208316,0.2474 0.3125,0.29297 0.104149,0.0456 0.208316,0.0684 0.3125,0.0684 0.208315,0 0.51756,-0.0423 0.927734,-0.12696 0.410137,-0.0846 0.84959,-0.21809 1.318359,-0.40039 0.02602,0.11719 0.05857,0.24089 0.09766,0.3711 0.03904,0.13021 0.08461,0.29948 0.136718,0.50781 -0.898456,0.76823 -1.725278,1.35742 -2.480468,1.76758 -0.755225,0.41015 -1.406266,0.61523 -1.953125,0.61523 -0.273453,0 -0.507828,-0.0977 -0.703125,-0.29297 -0.195327,-0.19531 -0.371109,-0.51432 -0.527344,-0.95703 -0.156264,-0.44271 -0.299493,-1.02539 -0.429688,-1.74805 -0.130222,-0.72265 -0.26043,-1.61132 -0.390625,-2.66601 -0.989595,1.9401 -2.028006,3.36914 -3.115234,4.28711 -1.087249,0.91797 -2.086597,1.37695 -2.998047,1.37695 -0.781256,0 -1.526698,-0.18229 -2.236328,-0.54687 -0.70964,-0.36459 -1.334639,-0.90821 -1.875,-1.63086 -0.540367,-0.72266 -0.970054,-1.62435 -1.289062,-2.70508 -0.319013,-1.08073 -0.478518,-2.33072 -0.478516,-3.75 -2e-6,-1.40624 0.198566,-2.75715 0.595703,-4.05274 0.397133,-1.29556 0.944007,-2.43488 1.640625,-3.41797 0.69661,-0.98305 1.520177,-1.76756 2.470703,-2.35351 0.950514,-0.58592 1.985669,-0.87889 3.105469,-0.87891 1.184885,2e-5 2.255848,0.54039 3.212891,1.6211 0.957017,1.08074 1.682928,2.69532 2.177734,4.84375 0.247381,-1.04166 0.445948,-2.04752 0.595703,-3.01758 0.149724,-0.97004 0.198552,-1.83267 0.146484,-2.58789 0.286443,-0.0521 0.598943,-0.11066 0.9375,-0.17578 0.338525,-0.0651 0.690088,-0.13345 1.054688,-0.20508 0.364565,-0.0716 0.722638,-0.14647 1.074219,-0.22461 0.351543,-0.0781 0.683574,-0.16274 0.996093,-0.25391 0.104147,0.14325 0.175762,0.27346 0.214844,0.39063 0.03904,0.1172 0.09113,0.22137 0.15625,0.3125 z" />
      </g>
      <g
         inkscape:export-ydpi="217.17247"
         inkscape:export-xdpi="217.17247"
         inkscape:export-filename="C:\Users\erikku\Dropbox\Megaten\logo.png"
         transform="matrix(1.722794,1.5725831,-1.5725831,1.722794,891.53175,-516.49537)"
         id="text2985-1"
         style="font-size:40px;font-style:normal;font-variant:normal;font-weight:normal;font-stretch:normal;line-height:125%;letter-spacing:0px;word-spacing:0px;fill:#ffffff;fill-opacity:1;stroke:none;font-family:Gentium Plus;-inkscape-font-specification:Gentium Plus">
        <path
           style="fill:#ffffff;fill-opacity:1"
           inkscape:connector-curvature="0"
           id="path3070"
           d="m 188.1543,399.03796 c -0.39065,0.2474 -0.79429,0.49805 -1.21094,0.75196 -0.41669,0.2539 -0.82033,0.48828 -1.21094,0.70312 -0.39064,0.21485 -0.75197,0.39063 -1.08398,0.52735 -0.33205,0.13671 -0.60874,0.20507 -0.83008,0.20507 -0.27345,0 -0.50783,-0.11067 -0.70313,-0.33203 -0.19532,-0.22135 -0.35808,-0.51758 -0.48828,-0.88867 -0.13022,-0.37109 -0.23113,-0.80403 -0.30273,-1.29883 -0.0716,-0.49479 -0.11395,-1.02213 -0.12695,-1.58203 -1.05471,1.36719 -2.07359,2.39258 -3.05665,3.07617 -0.98308,0.6836 -1.85222,1.02539 -2.60742,1.02539 -0.76823,0 -1.52344,-0.26041 -2.26562,-0.78125 -0.7422,-0.52083 -1.39975,-1.24999 -1.97266,-2.1875 l 0,0.11719 c -0.013,1.44531 0.0553,2.73763 0.20508,3.87695 0.14973,1.13932 0.35156,2.14193 0.60547,3.00782 0.2539,0.86588 0.54687,1.61132 0.8789,2.23633 0.33203,0.62499 0.66732,1.13931 1.00586,1.54296 -0.19532,0.0651 -0.45899,0.15625 -0.79101,0.27344 -0.33204,0.11718 -0.67709,0.24413 -1.03516,0.38086 -0.35808,0.13671 -0.69662,0.27017 -1.01562,0.40039 -0.31902,0.1302 -0.55665,0.23437 -0.71289,0.3125 l -0.76172,-0.5664 0,-23.47657 c -1e-5,-0.5078 -0.0163,-0.90493 -0.0488,-1.1914 -0.0326,-0.28645 -0.13021,-0.5078 -0.29297,-0.66407 -0.16276,-0.15623 -0.41341,-0.27016 -0.75195,-0.34179 -0.33855,-0.0716 -0.81381,-0.13996 -1.42578,-0.20508 l 0,-0.78125 c 0.50781,-0.0911 0.9733,-0.17576 1.39648,-0.25391 0.42318,-0.0781 0.82357,-0.166 1.20117,-0.26367 0.3776,-0.0976 0.73893,-0.20506 1.08399,-0.32226 0.34504,-0.11717 0.68684,-0.26691 1.02539,-0.44922 l 0.0781,0.0977 c 0.0651,0.0651 0.13672,0.14 0.21485,0.22461 0.0781,0.0847 0.1595,0.1758 0.24414,0.27344 0.0846,0.0977 0.15299,0.17905 0.20508,0.24414 l 0,10.76172 c -1e-5,0.45573 0.0846,0.95053 0.2539,1.48437 0.16927,0.53386 0.4069,1.03191 0.71289,1.49414 0.30598,0.46225 0.68033,0.84962 1.12305,1.16211 0.4427,0.31251 0.93749,0.46876 1.48437,0.46875 0.35156,1e-5 0.71288,-0.0326 1.08399,-0.0976 0.37108,-0.0651 0.76171,-0.20508 1.17187,-0.41992 0.41015,-0.21484 0.84309,-0.52409 1.29883,-0.92774 0.45572,-0.40364 0.944,-0.944 1.46485,-1.62109 l 0,-9.00391 c -2e-5,-0.20832 -0.0228,-0.45897 -0.0684,-0.75195 -0.0456,-0.29295 -0.10419,-0.58267 -0.17579,-0.86914 -0.0716,-0.28644 -0.14975,-0.55337 -0.23437,-0.80078 -0.0847,-0.24738 -0.17254,-0.42967 -0.26367,-0.54688 0.5729,-0.15623 1.15558,-0.33527 1.74804,-0.53711 0.59244,-0.2018 1.15559,-0.41339 1.68946,-0.63476 l 0.54687,0.76172 c -0.0521,0.33855 -0.11069,0.74546 -0.17578,1.2207 -0.0651,0.47527 -0.11069,1.12306 -0.13672,1.94336 l 0,9.58984 c -2e-5,1.21094 0.0586,2.06055 0.17578,2.54883 0.11717,0.48828 0.31249,0.73242 0.58594,0.73242 0.28644,0 0.59569,-0.0488 0.92774,-0.14648 0.33201,-0.0977 0.71287,-0.23112 1.14257,-0.40039 z" />
      </g>
      <g
         inkscape:export-ydpi="217.17247"
         inkscape:export-xdpi="217.17247"
         inkscape:export-filename="C:\Users\erikku\Dropbox\Megaten\logo.png"
         transform="matrix(0.81657344,2.2603024,-2.2603024,0.81657344,1347.0411,-93.812188)"
         id="text2985-4"
         style="font-size:40px;font-style:normal;font-variant:normal;font-weight:normal;font-stretch:normal;line-height:125%;letter-spacing:0px;word-spacing:0px;fill:#ffffff;fill-opacity:1;stroke:none;font-family:Gentium Plus;-inkscape-font-specification:Gentium Plus">
        <path
           style="fill:#ffffff;fill-opacity:1"
           inkscape:connector-curvature="0"
           id="path3067"
           d="m 124.72852,454.66296 c -0.88543,3e-5 -1.63413,0.22789 -2.2461,0.6836 -0.61198,0.45575 -1.11329,1.13283 -1.5039,2.03125 -0.39063,0.89846 -0.67384,2.01825 -0.84961,3.35937 -0.17579,1.34117 -0.27019,2.89716 -0.28321,4.66797 1.82291,0.15627 3.56445,0.22463 5.22461,0.20508 1.66015,-0.0195 3.27798,-0.0814 4.85352,-0.18555 -0.1172,-1.48436 -0.30926,-2.88084 -0.57617,-4.18945 -0.26694,-1.30857 -0.61525,-2.45115 -1.04493,-3.42773 -0.4297,-0.97654 -0.94402,-1.74477 -1.54296,-2.30469 -0.59897,-0.55987 -1.27606,-0.83982 -2.03125,-0.83985 z m 0.50781,24.21875 c 0.93749,10e-6 1.72525,-0.24413 2.36328,-0.73242 0.63801,-0.48828 1.14582,-1.21093 1.52344,-2.16797 0.37759,-0.95702 0.63475,-2.14517 0.77148,-3.56445 0.1367,-1.41926 0.18553,-3.05337 0.14649,-4.90234 -0.84637,-0.0521 -1.709,-0.0911 -2.58789,-0.11719 -0.87892,-0.026 -1.75457,-0.039 -2.62696,-0.0391 -0.8724,10e-6 -1.72527,0.0163 -2.55859,0.0488 -0.83334,0.0326 -1.62761,0.0814 -2.38281,0.14649 0.0651,1.54949 0.2246,3.01108 0.47851,4.38476 0.2539,1.37371 0.60546,2.57488 1.05469,3.60352 0.44921,1.02865 0.98957,1.84245 1.62109,2.44141 0.6315,0.59896 1.36393,0.89844 2.19727,0.89843 z m 7.92969,-12.1289 c 0.013,2.00522 -0.18882,3.88673 -0.60547,5.64453 -0.41669,1.75782 -1.00588,3.29102 -1.76758,4.59961 -0.76174,1.30859 -1.67319,2.34049 -2.73438,3.0957 -1.06121,0.75521 -2.22982,1.13281 -3.50586,1.13281 -1.27605,0 -2.40235,-0.35807 -3.3789,-1.07421 -0.97657,-0.71615 -1.79363,-1.70248 -2.45117,-2.95899 -0.65756,-1.2565 -1.15561,-2.74088 -1.49414,-4.45312 -0.33855,-1.71223 -0.50782,-3.57096 -0.50782,-5.57618 -0.013,-1.32811 0.0781,-2.61717 0.27344,-3.86718 0.19531,-1.24999 0.472,-2.42511 0.83008,-3.52539 0.35807,-1.10024 0.78776,-2.1061 1.28906,-3.01758 0.5013,-0.91144 1.0677,-1.69594 1.69922,-2.35352 0.6315,-0.65752 1.31184,-1.16859 2.04102,-1.5332 0.72915,-0.36456 1.49087,-0.54685 2.28515,-0.54688 1.32812,3e-5 2.49348,0.37764 3.4961,1.13282 1.00259,0.75523 1.83592,1.78388 2.5,3.08593 0.66404,1.30211 1.16534,2.8288 1.5039,4.58008 0.33853,1.75132 0.51431,3.62958 0.52735,5.63477 z" />
      </g>
      <g
         inkscape:export-ydpi="217.17247"
         inkscape:export-xdpi="217.17247"
         inkscape:export-filename="C:\Users\erikku\Dropbox\Megaten\logo.png"
         transform="matrix(3.3579712,-2.384151,1.3573643,1.9117876,-993.12541,215.17789)"
         id="text2985-9"
         style="font-size:40px;font-style:normal;font-variant:normal;font-weight:normal;font-stretch:normal;line-height:125%;letter-spacing:0px;word-spacing:0px;fill:#ffffff;fill-opacity:1;stroke:none;font-family:Gentium Plus;-inkscape-font-specification:Gentium Plus">
        <path
           style="fill:#ffffff;fill-opacity:1"
           inkscape:connector-curvature="0"
           id="path3064"
           d="m 255.27148,437.51062 c -1.19792,0.9375 -2.20704,1.62435 -3.02734,2.06055 -0.82032,0.43619 -1.44532,0.65429 -1.875,0.65429 -0.45573,0 -0.83008,-0.0911 -1.12305,-0.27343 -0.29297,-0.1823 -0.52409,-0.45899 -0.69336,-0.83008 -0.16927,-0.37109 -0.28646,-0.8431 -0.35156,-1.41602 -0.0651,-0.57291 -0.0911,-1.24999 -0.0781,-2.03125 l 0.15625,-9.10156 c 0.013,-0.67707 -1e-5,-1.23045 -0.0391,-1.66016 -0.0391,-0.42967 -0.15299,-0.76821 -0.34179,-1.01562 -0.18881,-0.24738 -0.48503,-0.41665 -0.88867,-0.50781 -0.40365,-0.0911 -0.96355,-0.13671 -1.67969,-0.13672 l 0,-0.78125 c 0.84635,-0.14321 1.7513,-0.34829 2.71484,-0.61524 0.96354,-0.26691 1.875,-0.58917 2.73438,-0.96679 l 0.625,0.78125 -0.19532,12.05078 c -0.013,0.89844 0,1.60807 0.0391,2.1289 0.0391,0.52084 0.0976,0.91472 0.17578,1.18164 0.0781,0.26693 0.17252,0.43295 0.2832,0.49805 0.11067,0.0651 0.23762,0.0977 0.38086,0.0977 0.1953,0 0.5371,-0.0618 1.02539,-0.18555 0.48827,-0.12369 1.14257,-0.39388 1.96289,-0.81055 z" />
      </g>
      <g
         inkscape:export-ydpi="217.17247"
         inkscape:export-xdpi="217.17247"
         inkscape:export-filename="C:\Users\erikku\Dropbox\Megaten\logo.png"
         transform="matrix(1.0921152,-2.5740271,2.5740271,1.0921152,-950.95404,515.71244)"
         id="text2985-9-8"
         style="font-size:40px;font-style:normal;font-variant:normal;font-weight:normal;font-stretch:normal;line-height:125%;letter-spacing:0px;word-spacing:0px;fill:#ffffff;fill-opacity:1;stroke:none;font-family:Gentium Plus;-inkscape-font-specification:Gentium Plus">
        <path
           style="fill:#ffffff;fill-opacity:1"
           inkscape:connector-curvature="0"
           id="path3061"
           d="m 210.09961,531.03796 c -0.53387,0.33855 -1.03843,0.64128 -1.51367,0.90821 -0.47528,0.26692 -0.91473,0.49804 -1.31836,0.69336 -0.40366,0.19531 -0.75523,0.34505 -1.05469,0.44922 -0.29949,0.10416 -0.53387,0.15624 -0.70312,0.15625 -0.35158,-10e-6 -0.68687,-0.22461 -1.00586,-0.67383 -0.31903,-0.44922 -0.62827,-1.01237 -0.92774,-1.68946 -0.29949,-0.67708 -0.59246,-1.4095 -0.8789,-2.19726 -0.28648,-0.78776 -0.57619,-1.52018 -0.86915,-2.19727 -0.29298,-0.67707 -0.59245,-1.24022 -0.89843,-1.68945 -0.306,-0.44921 -0.62827,-0.67382 -0.9668,-0.67383 -0.23438,10e-6 -0.50131,0.0814 -0.80078,0.24414 -0.29949,0.16277 -0.60548,0.38087 -0.91797,0.6543 l -1.64062,1.93359 c -1e-5,0.37761 0.01,0.81055 0.0293,1.29883 0.0195,0.48829 0.0423,0.97982 0.0684,1.47461 0.026,0.49479 0.0586,0.95703 0.0977,1.38672 0.0391,0.42969 0.0781,0.77474 0.11719,1.03516 -0.16928,0.0651 -0.3711,0.14322 -0.60547,0.23437 -0.23438,0.0911 -0.47852,0.18555 -0.73243,0.2832 -0.25391,0.0977 -0.50456,0.19857 -0.75195,0.30274 -0.2474,0.10416 -0.46875,0.19531 -0.66406,0.27344 l -0.74219,-0.60547 c 0.0391,-0.20834 0.0749,-0.48503 0.10742,-0.83008 0.0325,-0.34505 0.0586,-0.73242 0.0781,-1.16211 0.0195,-0.42969 0.0358,-0.89518 0.0488,-1.39649 0.013,-0.50129 0.0195,-1.01236 0.0195,-1.5332 l 0,-8.22265 c -1e-5,-0.71614 -0.0163,-1.27603 -0.0488,-1.67969 -0.0326,-0.40363 -0.13672,-0.70962 -0.3125,-0.91797 -0.17578,-0.20832 -0.45899,-0.3548 -0.84961,-0.43945 -0.39063,-0.0846 -0.94401,-0.15949 -1.66016,-0.22461 l 0,-0.78125 c 0.48177,-0.0781 0.9668,-0.17577 1.45508,-0.29297 0.48828,-0.11717 0.96029,-0.25064 1.41602,-0.40039 0.45572,-0.14972 0.88541,-0.29946 1.28906,-0.44922 0.40364,-0.14972 0.76822,-0.2897 1.09375,-0.41992 l 0.54688,0.66406 0,9.96094 c 1.30207,-1.66666 2.45116,-3.08593 3.44726,-4.25782 0.99608,-1.17186 1.86848,-2.15167 2.61719,-2.93945 0.74868,-0.78774 1.39972,-1.40949 1.95312,-1.86523 0.55337,-0.45572 1.04491,-0.80077 1.47461,-1.03516 0.42967,-0.23436 0.81704,-0.38084 1.16211,-0.43945 0.34504,-0.0586 0.68683,-0.0879 1.02539,-0.0879 0.0911,0.1172 0.16275,0.22137 0.21485,0.3125 l 0.13672,0.21484 c 0.013,0.0261 0.026,0.0456 0.0391,0.0586 -0.26044,0.63804 -0.54364,1.24026 -0.84961,1.80664 -0.30601,0.56643 -0.60874,1.00588 -0.9082,1.31836 -0.42971,0.0651 -0.82684,0.15627 -1.19141,0.27344 -0.3646,0.1172 -0.75848,0.31903 -1.18164,0.60547 -0.42319,0.28647 -0.90171,0.68035 -1.43555,1.18164 -0.53386,0.50132 -1.1784,1.16863 -1.93359,2.00195 l 0.17578,0 c 0.41665,10e-6 0.81053,0.22462 1.18164,0.67383 0.37108,0.44923 0.7259,1.00587 1.06445,1.66992 0.33853,0.66407 0.67056,1.38999 0.9961,2.17774 0.3255,0.78776 0.64777,1.51368 0.96679,2.17773 0.319,0.66407 0.63801,1.22071 0.95703,1.66992 0.319,0.44923 0.64777,0.67383 0.98633,0.67383 0.22134,0 0.42316,-0.01 0.60547,-0.0293 0.18228,-0.0195 0.36457,-0.0521 0.54688,-0.0977 0.18227,-0.0456 0.37107,-0.10417 0.5664,-0.17578 0.1953,-0.0716 0.42316,-0.15299 0.6836,-0.24414 z" />
      </g>
      <text
         inkscape:export-ydpi="217.17247"
         inkscape:export-xdpi="217.17247"
         inkscape:export-filename="C:\Users\erikku\Dropbox\Megaten\logo.png"
         transform="matrix(-0.99806955,0.06210612,-0.06210612,-0.99806955,1035.9151,1034.2626)"
         sodipodi:linespacing="125%"
         id="text2992"
         style="font-size:40px;font-style:normal;font-variant:normal;font-weight:normal;font-stretch:normal;line-height:125%;letter-spacing:1.5px;word-spacing:0px;fill:#ffffff;fill-opacity:1;stroke:none;font-family:Gentium Plus;-inkscape-font-specification:Gentium Plus"
         xml:space="preserve"><textPath
           dy="-4"
           rotate="0 0 0 0 0 0 0 0 0 0 0 0 0 0 0 0 0 0 0 0 0 0 0 0 0 0 0 0 0 0 0 0 0 0 0 0 0 0 0 0 0 0 0"
           style="font-size:28px;font-style:normal;font-variant:normal;font-weight:normal;font-stretch:normal;letter-spacing:0px;fill:#ffffff;fill-opacity:1;font-family:Monospace;-inkscape-font-specification:Monospace"
           id="textPath3957"
           xlink:href="#path3783">010000110100111101001101010100000101111101101000011000010110001101101011</textPath></text>
      <path
         inkscape:export-ydpi="217.17247"
         inkscape:export-xdpi="217.17247"
         inkscape:export-filename="C:\Users\erikku\Dropbox\Megaten\logo.png"
         id="rect3907"
         d="m 486.1875,510.875 c 3.55784,1.60732 12.95293,12.32675 14.21875,20.9375 -8.62883,-1.26042 -19.47167,-10.47894 -20.9375,-14.21875 l 0.0312,16 0,0.1875 -0.0312,16 c 1.46583,-3.73981 12.30867,-12.95833 20.9375,-14.21875 -1.27539,8.62454 -10.48275,19.47316 -14.21875,20.9375 l 16,-0.0312 16.1875,0.0312 c -3.73612,-1.46438 -12.97507,-12.31283 -14.25,-20.9375 8.61582,1.24844 19.32832,10.65681 20.9375,14.21875 l -0.0625,-16 0,-0.0937 0,-0.0937 0.0625,-16 c -1.60918,3.56194 -12.32168,12.97031 -20.9375,14.21875 1.26582,-8.61075 10.69216,-19.33018 14.25,-20.9375 l -16,0.0937 -16.1875,-0.0937 z"
         style="fill:#ffffff;fill-opacity:1;stroke:none"
         inkscape:connector-curvature="0" />
      <path
         inkscape:export-ydpi="217.17247"
         inkscape:export-xdpi="217.17247"
         inkscape:export-filename="C:\Users\erikku\Dropbox\Megaten\logo.png"
         id="path4177"
         d="m 496.78125,709.875 c 1.21995,0.55115 4.45559,4.23871 4.875,7.1875 -2.95209,-0.42742 -6.68582,-3.59507 -7.1875,-4.875 l 0.0312,5.46875 0,0.0625 -0.0312,5.46875 c 0.50006,-1.27581 4.20881,-4.43141 7.15625,-4.875 -0.43067,2.95117 -3.56464,6.68614 -4.84375,7.1875 l 5.46875,-0.0312 5.53125,0.0312 c -1.2798,-0.50163 -4.44702,-4.23556 -4.875,-7.1875 2.94879,0.41941 6.6051,3.65504 7.15625,4.875 l 0,-5.46875 0,-0.0625 0,-5.46875 c -0.55115,1.21995 -4.20746,4.45559 -7.15625,4.875 0.41941,-2.94879 3.65504,-6.63635 4.875,-7.1875 l -5.46875,0.0312 -5.53125,-0.0312 z"
         style="fill:#ffffff;fill-opacity:1;stroke:none"
         inkscape:connector-curvature="0" />
    </g>
  </g>
</svg>
